<?xml version="1.0" encoding="utf-8"?>
<!-- Generator: Adobe Illustrator 26.0.3, SVG Export Plug-In . SVG Version: 6.00 Build 0)  -->
<svg version="1.1" xmlns="http://www.w3.org/2000/svg" xmlns:xlink="http://www.w3.org/1999/xlink" x="0px" y="0px"
	 viewBox="0 0 2000 2000" style="enable-background:new 0 0 2000 2000;" xml:space="preserve">
<style type="text/css">
	.st0{fill:#00FF69;}
	.st1{fill:#6900FF;}
	.st2{fill:none;stroke:#6900FF;stroke-width:40;stroke-miterlimit:10;}
</style>
<g id="Layer_2">
	<rect x="-5" y="-7.8" class="st0" width="2010.4" height="2010.4"/>
</g>
<g id="Layer_1">
	<g>
		<polygon class="st1" points="1009.7,547.6 609.6,1165 1012.1,1390.5 1417.1,1165 		"/>
		<polygon class="st1" points="1147.1,581.7 1558.1,1225.3 1226.6,1387.9 1831.6,1226.6 1655.7,1195.2 		"/>
		<polygon class="st1" points="1329.1,682.6 1438.7,801.9 1772.6,278.9 		"/>
		<polygon class="st1" points="1008.5,526.6 1201.3,468.9 1012.1,109.7 822.9,471.6 		"/>
		<polygon class="st1" points="1012.1,1414.1 1243.5,1554.3 1014.5,1893.9 773.5,1549.1 		"/>
		<polygon class="st1" points="1323.9,1454.3 1518.3,1363.4 1607.5,1799.5 		"/>
		<polygon class="st1" points="877.1,581.7 466.2,1225.3 797.6,1387.9 192.6,1226.6 368.6,1195.2 		"/>
		<polygon class="st1" points="695.2,682.6 585.5,801.9 251.7,278.9 		"/>
		<polygon class="st1" points="700.4,1454.3 506,1363.4 416.8,1799.5 		"/>
	</g>
	<rect x="44.7" y="42.6" class="st2" width="1920.9" height="1920.9"/>
</g>
</svg>
