<?xml version="1.0" encoding="utf-8"?>
<!-- Generator: Adobe Illustrator 26.0.3, SVG Export Plug-In . SVG Version: 6.00 Build 0)  -->
<svg version="1.1" xmlns="http://www.w3.org/2000/svg" xmlns:xlink="http://www.w3.org/1999/xlink" x="0px" y="0px"
	 viewBox="0 0 132 36" style="enable-background:new 0 0 132 36;" xml:space="preserve">
<style type="text/css">
	.st0{fill:#00FF69;}
	.st1{fill:#6900FF;}
	.st2{fill:none;stroke:#6900FF;stroke-miterlimit:10;}
</style>
<g id="Layer_2">
	<rect x="0" y="0" class="st0" width="132.2" height="36.2"/>
	<rect x="35.3" y="2.6" class="st1" width="93.9" height="29.7"/>
	<g>
		<path class="st0" d="M38.4,30.9V4.4h2.9c1.1,0,2,1.3,2.6,3.8s1,5.7,1,9.5s-0.3,6.9-1,9.4s-1.7,3.8-2.9,3.8H38.4z M39.9,27h1.2
			c0.6,0,1.2-0.8,1.6-2.4c0.4-1.6,0.7-4,0.7-7.2c0-2.6-0.2-4.8-0.6-6.6s-0.9-2.7-1.6-2.7h-1.4V27z"/>
		<path class="st0" d="M51.5,30.8h-5.2V4.2h5.1v4h-3.7v7.2h3v3.9h-3v7.4h3.8V30.8z"/>
		<path class="st0" d="M58.8,30.8h-1.3l-2.8-17c0-0.3-0.1-0.7-0.2-1.3c0-0.3-0.1-0.7-0.2-1.2v19.5h-1.1V4.2h1.5l2.6,15.7
			c0,0.1,0.2,1.1,0.5,2.9V4.2h1.1V30.8z"/>
		<path class="st0" d="M66.6,30.9h-1.4l-3-17.1c0-0.3-0.1-0.7-0.2-1.3c0-0.3-0.1-0.7-0.2-1.2v19.6h-1.2V4.2h1.6L65,19.9
			c0,0.1,0.2,1.1,0.5,2.9V4.2h1.1V30.9z"/>
		<path class="st0" d="M69.8,30.8h-1.4V4.1h1.4V30.8z"/>
		<path class="st0" d="M70.7,24.1l1.4-1c0.2,2.6,0.8,3.9,1.9,3.9c0.5,0,0.9-0.3,1.2-1c0.3-0.7,0.4-1.5,0.4-2.5c0-0.7-0.1-1.4-0.2-2
			s-0.4-1.1-0.8-1.4l-1.5-1.3c-0.5-0.4-0.9-0.9-1.2-1.5c-0.2-0.6-0.5-1.4-0.6-2.4s-0.2-2.1-0.2-3.3c0-2.3,0.3-4.2,0.8-5.6
			S73.2,4,74,4c0.7,0,1.3,0.5,1.8,1.5s0.9,2.4,1,4.1l-1.4,1.1c-0.2-2-0.7-2.9-1.5-2.9c-0.4,0-0.8,0.3-1,0.9s-0.4,1.4-0.4,2.3
			c0,1.5,0.4,2.5,1.1,3.1l1.4,1.1c0.8,0.7,1.4,1.7,1.7,3c0.3,1.3,0.4,2.8,0.4,4.3c0,2.5-0.3,4.6-0.9,6s-1.4,2.2-2.3,2.2
			c-0.8,0-1.5-0.5-2.1-1.6C71.3,28.1,70.9,26.4,70.7,24.1z"/>
		<path class="st0" d="M86.7,26.5v4.1h-5.9v-3.8l4.1-18.9h-3.8V4.1h5.5v3.8l-4,18.6H86.7z"/>
		<path class="st0" d="M91.9,30.6h-4.1V4.1h1.3v22.2h2.8V30.6z"/>
		<path class="st0" d="M100.1,30.5h-1.5l-0.6-6.3h-3.1l-0.6,6.3H93l2.7-26.5h1.8L100.1,30.5z M97.5,20.4L96.3,8.6l-1.2,11.8H97.5z"
			/>
		<path class="st0" d="M103.2,30.5h-1.5V8.2h-2.1V4.1h5.8v4.1h-2.1V30.5z"/>
		<path class="st0" d="M112.5,30.5H111L109.5,17l-1.4,6.8v6.7h-1.3V4h1.3v13.9c0.2-0.9,0.3-1.6,0.4-2L110.8,4h1.3l-1.7,8.7
			L112.5,30.5z"/>
		<path class="st0" d="M116.2,30.5c-1.1,0-1.9-1.3-2.5-3.8s-0.9-5.7-0.9-9.5c0-3.7,0.3-6.9,0.9-9.4s1.5-3.8,2.5-3.8
			c1,0,1.9,1.3,2.5,3.8s0.9,5.7,0.9,9.4c0,4-0.3,7.2-0.9,9.6S117.2,30.5,116.2,30.5z M116.2,26.7c0.5,0,1-0.7,1.3-2.1
			s0.5-3.9,0.5-7.5c0-2.9-0.1-5.3-0.4-6.9s-0.8-2.5-1.4-2.5c-1.2,0-1.9,3.2-1.9,9.6c0,3.1,0.2,5.4,0.5,7
			C115.2,25.9,115.6,26.7,116.2,26.7z"/>
		<path class="st0" d="M123.9,30.5h-1.5L119.9,4h1.5l1.8,20.3L125.2,4h1.2L123.9,30.5z"/>
	</g>
</g>
<g id="Layer_3">
	<g>
		<polygon class="st1" points="17.6,10.7 11.6,19.9 17.6,23.3 23.7,19.9 		"/>
		<polygon class="st1" points="19.6,11.2 25.8,20.8 20.8,23.2 29.9,20.8 27.2,20.3 		"/>
		<polygon class="st1" points="22.4,12.7 24,14.5 29,6.6 		"/>
		<polygon class="st1" points="17.6,10.3 20.4,9.5 17.6,4.1 14.8,9.5 		"/>
		<polygon class="st1" points="17.6,23.6 21.1,25.7 17.7,30.8 14.1,25.6 		"/>
		<polygon class="st1" points="22.3,24.2 25.2,22.9 26.5,29.4 		"/>
		<polygon class="st1" points="15.6,11.2 9.5,20.8 14.4,23.2 5.4,20.8 8,20.3 		"/>
		<polygon class="st1" points="12.9,12.7 11.2,14.5 6.2,6.6 		"/>
		<polygon class="st1" points="13,24.2 10,22.9 8.7,29.4 		"/>
	</g>
	<rect x="3.2" y="3.1" class="st2" width="28.7" height="28.7"/>
</g>
</svg>
